<svg width="47" height="47" viewBox="0 0 47 47" fill="none" xmlns="http://www.w3.org/2000/svg">
<path d="M43.2112 14.9C39.8927 7.3062 32.315 2 23.5 2C14.685 2 7.10624 7.3062 3.78879 14.9" stroke="#131010" stroke-width="4" stroke-linecap="round" stroke-linejoin="round"/>
<path d="M23.5 12.75C21.4549 14.7495 19.8306 17.1381 18.7229 19.7751C17.6152 22.4121 17.0464 25.244 17.05 28.1042C17.05 28.6417 17.0697 29.1749 17.1091 29.7038C19.1366 31.7015 20.7459 34.0829 21.8431 36.7091C22.9404 39.3353 23.5036 42.1538 23.5 45C23.4962 42.1536 24.0594 39.3349 25.1567 36.7085C26.254 34.0821 27.8633 31.7005 29.8909 29.7028C29.9303 29.1753 29.95 28.6424 29.95 28.1042C29.9536 25.244 29.3848 22.4121 28.2771 19.7751C27.1694 17.1381 25.5451 14.7495 23.5 12.75Z" stroke="#131010" stroke-width="4" stroke-linecap="round" stroke-linejoin="round"/>
<path d="M2 23.5C2 35.3745 11.6256 45 23.5 45C23.5038 42.1536 22.9406 39.335 21.8433 36.7085C20.746 34.0821 19.1367 31.7005 17.1091 29.7028C13.0887 25.7223 7.65759 23.4927 2 23.5Z" stroke="#131010" stroke-width="4" stroke-linecap="round" stroke-linejoin="round"/>
<path d="M45 23.5C45 35.3745 35.3744 45 23.5 45C23.4962 42.1536 24.0594 39.335 25.1567 36.7085C26.2539 34.0821 27.8633 31.7005 29.8909 29.7028C33.9113 25.7223 39.3424 23.4927 45 23.5Z" stroke="#131010" stroke-width="4" stroke-linecap="round" stroke-linejoin="round"/>
</svg>
