<svg width="65" height="65" viewBox="0 0 65 65" fill="none" xmlns="http://www.w3.org/2000/svg">
<path d="M44.5684 57.9583C40.7983 59.751 36.6746 60.6764 32.5 60.6666C16.9694 60.6666 4.33339 48.0306 4.33339 32.5C4.33339 25.8375 6.62356 19.5455 10.8334 14.4993V19.5H15.1667V6.5H2.16673V10.8333H8.32439C2.95231 16.7694 -0.0154809 24.494 6.07333e-05 32.5C6.07333e-05 50.4205 14.5795 65 32.5 65C37.3192 65.01 42.0795 63.941 46.4317 61.8713L44.5684 57.9583Z" fill="#18AE1D"/>
<path d="M43.3333 17.3333C36.4866 17.3333 30.8728 22.6567 30.381 29.3799C27.999 27.2064 24.8912 26.001 21.6667 25.9999H13V34.6666C13 41.8361 18.8327 47.6666 26 47.6666H30.3333V56.3332H34.6667V38.9999H39C46.1673 38.9999 52 33.1694 52 25.9999V17.3333H43.3333ZM26 43.3332C21.2203 43.3332 17.3333 39.4462 17.3333 34.6666V30.3332H21.6667C26.4463 30.3332 30.3333 34.2202 30.3333 38.9999V40.2696L25.3652 35.3014L22.3015 38.3651L27.2697 43.3332H26ZM47.6666 25.9999C47.6666 30.7796 43.7796 34.6666 39 34.6666H37.7303L42.6985 29.6984L39.6348 26.6347L34.6667 31.6029V30.3332C34.6667 25.5536 38.5536 21.6666 43.3333 21.6666H47.6666V25.9999Z" fill="#18AE1D"/>
<path d="M64.9998 32.5C64.9998 14.5796 50.4203 6.99762e-05 32.4998 6.99762e-05C27.6806 -0.00996333 22.9203 1.05907 18.5682 3.12873L20.4315 7.04173C24.2015 5.24903 28.3253 4.3236 32.4998 4.3334C48.0305 4.3334 60.6665 16.9694 60.6665 32.5C60.6665 39.1625 58.3763 45.4545 54.1665 50.5007V45.5H49.8332V58.5H62.8331V54.1667H56.6755C62.0476 48.2306 65.0153 40.506 64.9998 32.5Z" fill="#18AE1D"/>
</svg>
