<svg width="22" height="22" viewBox="0 0 22 22" fill="none" xmlns="http://www.w3.org/2000/svg">
<path d="M21 11C21 13.6522 19.9464 16.1957 18.0711 18.0711C16.1957 19.9464 13.6522 21 11 21C8.34784 21 5.8043 19.9464 3.92893 18.0711C2.05357 16.1957 1 13.6522 1 11M21 11C21 8.34784 19.9464 5.8043 18.0711 3.92893C16.1957 2.05357 13.6522 1 11 1C8.34784 1 5.8043 2.05357 3.92893 3.92893C2.05357 5.8043 1 8.34784 1 11M21 11H1" stroke="#131010" stroke-width="1.5" stroke-linecap="round" stroke-linejoin="round"/>
<path d="M14.8461 11C14.6572 14.6569 13.3103 18.159 11 21C8.68972 18.159 7.34276 14.6569 7.15384 11C7.34276 7.34309 8.68972 3.841 11 1C13.3103 3.841 14.6572 7.34309 14.8461 11Z" stroke="#131010" stroke-width="1.5" stroke-linecap="round" stroke-linejoin="round"/>
</svg>
