<svg width="33" height="16" viewBox="0 0 33 16" fill="none" xmlns="http://www.w3.org/2000/svg">
<path d="M8.25 16V12.8H18.15C17.765 12.3467 17.4559 11.8533 17.2227 11.32C16.9895 10.7867 16.8036 10.2133 16.665 9.6H11.55V6.4H16.665C16.8025 5.78667 16.9884 5.21333 17.2227 4.68C17.457 4.14667 17.7661 3.65333 18.15 3.2H1.65V0H24.75C27.0325 0 28.9784 0.780267 30.5877 2.3408C32.197 3.90133 33.0011 5.78773 33 8C32.9989 10.2123 32.1943 12.0992 30.5861 13.6608C28.9779 15.2224 27.0325 16.0021 24.75 16H8.25ZM0 9.6V6.4H9.9V9.6H0ZM1.65 16V12.8H6.6V16H1.65Z" fill="#717171"/>
</svg>
