<svg width="33" height="16" viewBox="0 0 33 16" fill="none" xmlns="http://www.w3.org/2000/svg">
<path d="M1.54688 0C1.13662 0 0.743164 0.101142 0.453069 0.281177C0.162974 0.461212 0 0.705392 0 0.96C0 1.21461 0.162974 1.45879 0.453069 1.63882C0.743164 1.81886 1.13662 1.92 1.54688 1.92H31.4531C31.8634 1.92 32.2568 1.81886 32.5469 1.63882C32.837 1.45879 33 1.21461 33 0.96C33 0.705392 32.837 0.461212 32.5469 0.281177C32.2568 0.101142 31.8634 0 31.4531 0H1.54688ZM0 6.72C0 5.8368 1.155 5.12 2.57812 5.12H30.4219C31.1056 5.12 31.7614 5.28857 32.2449 5.58863C32.7284 5.88869 33 6.29565 33 6.72C33 7.14435 32.7284 7.55131 32.2449 7.85137C31.7614 8.15143 31.1056 8.32 30.4219 8.32H2.57812C1.155 8.32 0 7.6032 0 6.72ZM0 13.76C0 12.5235 1.617 11.52 3.60938 11.52H29.3906C30.3479 11.52 31.2659 11.756 31.9428 12.1761C32.6197 12.5962 33 13.1659 33 13.76C33 14.3541 32.6197 14.9238 31.9428 15.3439C31.2659 15.764 30.3479 16 29.3906 16H3.60938C2.65211 16 1.73405 15.764 1.05716 15.3439C0.380273 14.9238 0 14.3541 0 13.76Z" fill="#717171"/>
</svg>
