<svg width="34" height="16" viewBox="0 0 34 16" fill="none" xmlns="http://www.w3.org/2000/svg">
<path d="M25.293 1.29297C25.6591 0.926853 26.2381 0.904259 26.6309 1.22461L26.707 1.29297L32.707 7.29297C33.0976 7.68349 33.0976 8.31651 32.707 8.70703L26.707 14.707C26.3165 15.0976 25.6835 15.0976 25.293 14.707C24.9024 14.3165 24.9024 13.6835 25.293 13.293L29.5859 9H4.41406L8.70703 13.293L8.77539 13.3691C9.09574 13.7619 9.07315 14.3409 8.70703 14.707C8.34092 15.0731 7.76191 15.0957 7.36914 14.7754L7.29297 14.707L1.29297 8.70703C0.902444 8.31651 0.902444 7.68349 1.29297 7.29297L7.29297 1.29297C7.68349 0.902444 8.31651 0.902444 8.70703 1.29297C9.09756 1.68349 9.09756 2.31651 8.70703 2.70703L4.41406 7H29.5859L25.293 2.70703L25.2246 2.63086C24.9043 2.23809 24.9269 1.65908 25.293 1.29297Z" fill="#717171" stroke="#717171" stroke-width="2" stroke-linecap="round" stroke-linejoin="round"/>
</svg>
